<svg viewBox="0 0 96 96" xmlns="http://www.w3.org/2000/svg" xmlns:xlink="http://www.w3.org/1999/xlink" id="Icons_SignLanguage" overflow="hidden"><path d="M77.88 66.37C79.9566 64.1835 79.8675 60.7276 77.681 58.651 76.6685 57.6894 75.3262 57.1523 73.93 57.15L73.8 57.15 72.8 57.15 72.92 57.15C75.8147 56.3051 77.4763 53.2735 76.6314 50.3788 75.8246 47.6148 73.0101 45.9524 70.2 46.58L56.31 50.14C57.85 48.69 59.13 47.32 59.99 46.37L74.08 41.37C75.8777 40.7321 76.8179 38.7577 76.18 36.96 75.5421 35.1623 73.5677 34.2221 71.77 34.86L58.58 39.53 74.07 28.75C75.6616 27.6925 76.0946 25.5449 75.037 23.9533 73.9795 22.3617 71.832 21.9288 70.2404 22.9863 70.1997 23.0133 70.1595 23.0412 70.12 23.07L56.62 32.48 68 19.45C69.1784 17.9457 68.9143 15.7709 67.41 14.5925 66.0157 13.5003 64.0218 13.6373 62.79 14.91L50.61 28.91 58.89 13.38C59.7052 11.6517 58.965 9.58979 57.2367 8.77458 55.6265 8.01507 53.7028 8.60145 52.79 10.13L42.79 28.79C41.1092 30.423 39.2663 31.8806 37.29 33.14L37.29 32.91C37.97 27.58 37.12 21.56 34.46 17.67 33.4493 16.1926 31.4324 15.8143 29.955 16.825 28.4776 17.8357 28.0993 19.8526 29.11 21.33 30.38 23.18 29.89 27.03 29.36 31.1 28.78 36.11 28 42.11 30 47.83L23.63 55.13 18.63 55.13C17.5254 55.13 16.63 56.0254 16.63 57.13L16.63 72.13C16.63 73.2346 17.5254 74.13 18.63 74.13L27.7 74.13C31.99 79.77 43.7 80.34 48.17 80.34L48.27 80.34 61 87.12C61.7853 87.5363 62.6612 87.7527 63.55 87.75 66.5655 87.7491 69.0093 85.3038 69.0083 82.2883 69.0078 80.5335 68.1638 78.8858 66.74 77.86L70.74 78.78C73.6786 79.4268 76.5891 77.5832 77.26 74.65 77.9126 71.7104 76.0666 68.7961 73.13 68.13L72.93 68.13 73.93 68.13C75.4325 68.1108 76.861 67.4743 77.88 66.37ZM56.68 64.47C55.5754 64.3623 54.5927 65.1704 54.485 66.275 54.3773 67.3796 55.1854 68.3623 56.29 68.47L72.34 72C73.1234 72.1791 73.6178 72.9541 73.45 73.74 73.3612 74.1142 73.1321 74.4399 72.81 74.65 72.4846 74.8608 72.0872 74.9295 71.71 74.84L53.29 70.73C52.214 70.4802 51.1393 71.15 50.8895 72.2259 50.6836 73.1132 51.1031 74.0275 51.91 74.45L64.28 81C65.0171 81.3269 65.3497 82.1894 65.0229 82.9265 64.696 83.6636 63.8335 83.9962 63.0964 83.6693 63.0319 83.6408 62.9696 83.6076 62.91 83.57L49.7 76.57C49.4102 76.4175 49.0874 76.3386 48.76 76.34L48.76 76.34C41.17 76.44 32.55 74.87 30.57 71.18 30.2209 70.5332 29.545 70.13 28.81 70.13L20.62 70.13 20.62 59.13 27.44 59.13C28.1772 59.128 28.8535 58.7207 29.2 58.07 31.76 53.3 36.25 50.13 40.2 47.35L40.56 47.09C44.39 44.39 47.7 42.09 48.38 39.09 48.5382 38.4251 49.2047 38.0136 49.87 38.17 50.1922 38.2379 50.4713 38.4373 50.64 38.72 50.8165 38.9995 50.8741 39.3379 50.8 39.66 49.92 43.43 46.57 47.82 42.27 50.85L42.2 51 42.11 51.06C41.1973 51.6821 40.9617 52.9264 41.5839 53.8391 41.8578 54.241 42.2688 54.5293 42.74 54.65 45.1424 55.2973 47.6057 55.6928 50.09 55.83 50.2851 55.8348 50.48 55.8146 50.67 55.77L71.15 50.5C71.522 50.4021 71.9178 50.4561 72.25 50.65 72.5845 50.8439 72.8262 51.165 72.92 51.54 73.1317 52.3072 72.6854 53.1017 71.92 53.32L54.92 57.7C53.8486 57.9685 53.1977 59.0548 53.4662 60.1262 53.6895 61.0174 54.4913 61.6418 55.41 61.64L55.46 61.64 73.97 61.2 73.97 61.2C74.7736 61.2667 75.3709 61.9722 75.3043 62.7757 75.2453 63.4868 74.681 64.051 73.97 64.11Z" fill="#A6A6A6"/></svg>