<svg viewBox="0 0 96 96" xmlns="http://www.w3.org/2000/svg" xmlns:xlink="http://www.w3.org/1999/xlink" id="Icons_Lips" overflow="hidden"><path d="M11 44.8C13.4 45.35 17 44.44 20.73 43.47 24.6319 42.3095 28.6627 41.6377 32.73 41.47 35.84 41.47 39.19 42.47 42.15 43.41 44.0032 44.0971 45.9347 44.5506 47.9 44.76 49.862 44.5504 51.7902 44.0969 53.64 43.41 56.64 42.5 59.96 41.47 63.06 41.47 67.1272 41.6386 71.1579 42.3104 75.06 43.47 78.83 44.47 82.39 45.35 84.78 44.8L85.45 44.63C82.0451 42.9275 78.7785 40.9615 75.68 38.75 71.62 35.59 63.07 29.06 59.07 28.06L59.07 28.06C58.2953 27.8427 57.4946 27.7317 56.69 27.73 52.6151 27.7326 49.0504 30.4728 48 34.41 46.943 30.4843 43.3855 27.7547 39.32 27.75 38.5154 27.7517 37.7147 27.8627 36.94 28.08L36.94 28.08C32.94 29.08 24.39 35.61 20.33 38.77 17.209 40.9963 13.919 42.9756 10.49 44.69Z" fill="#A6A6A6"/><path d="M85.68 48.7C84.8457 48.8824 83.994 48.973 83.14 48.97 80.0592 48.7906 77.0108 48.2434 74.06 47.34 70.4841 46.2654 66.7898 45.634 63.06 45.46 60.56 45.46 57.51 46.4 54.82 47.23 52.5935 48.05 50.2652 48.5615 47.9 48.75 45.5408 48.5582 43.2191 48.0434 41 47.22 38.31 46.4 35.26 45.46 32.76 45.46 29.0304 45.6357 25.3363 46.267 21.76 47.34 17.51 48.44 13.49 49.47 10.15 48.7 9.4 48.53 8.64 48.31 7.89 48.07 11.76 51.36 21.89 59.85 25.89 62.25 30.89 65.25 39.89 68.25 46.89 68.25L49.25 68.25C56.25 68.25 65.25 65.25 70.25 62.25 74.25 59.82 84.56 51.18 88.33 47.97 87.4 48.25 86.53 48.5 85.68 48.7Z" fill="#A6A6A6"/></svg>